<?xml version="1.0" encoding="utf-8"?>
<!-- Svg Vector Icons : http://www.onlinewebfonts.com/icon -->
<!DOCTYPE svg PUBLIC "-//W3C//DTD SVG 1.1//EN" "http://www.w3.org/Graphics/SVG/1.1/DTD/svg11.dtd">
<svg version="1.1" xmlns="http://www.w3.org/2000/svg" xmlns:xlink="http://www.w3.org/1999/xlink" x="0px" y="0px" viewBox="0 0 1000 1000" enable-background="new 0 0 1000 1000" xml:space="preserve">
<metadata> Svg Vector Icons : http://www.onlinewebfonts.com/icon </metadata>
<g><g transform="translate(0.000000,641.000000) scale(0.100000,-0.100000)"><path d="M7775,6239.5c-214.4-38.3-392.1-70.4-395.1-73.5c-7.7-6.1,650.9-3790.4,660.1-3799.6c7.7-7.7,790.3,125.6,800.9,136.3c6.1,4.6-609.5,3589.8-646.3,3767.4c-4.6,23-13.8,41.4-18.4,39.8C8170.1,6309.9,7989.4,6277.7,7775,6239.5z"/><path d="M5367.5,5273.1c-182.2-124.1-332.3-231.3-333.9-237.4c0-21.5,2160.9-3180.9,2176.2-3180.9c24.5,0,673.8,447.2,669.3,461c-9.2,23-2164,3182.4-2171.6,3182.4C5702.9,5498.2,5549.8,5397.2,5367.5,5273.1z"/><path d="M3526.7,3337.3c-114.9-194.5-206.7-355.3-205.2-356.8c21.4-18.4,3312.6-1952.6,3321.8-1952.6c7.7,0,93.4,136.3,191.4,303.2c98,165.4,191.4,323.1,206.7,349.2l29.1,47.5l-1657.1,977.1c-912.8,537.5-1663.2,978.6-1667.8,981.7C3741.1,3689.6,3643.1,3531.8,3526.7,3337.3z"/><path d="M2826.8,1714c-140.9-520.7-191.4-718.3-182.2-724.4c15.3-9.2,3663.3-989.3,3697-992.4c24.5-3.1,41.3,45.9,133.2,385.9c58.2,214.4,101.1,393.6,98,398.2c-9.2,9.2-3683.2,997-3709.2,997C2852.9,1778.3,2837.5,1749.2,2826.8,1714z"/><path d="M1159-1476.1V-3490h3191.6h3191.6l10.7,140.9c4.6,78.1,7.7,983.2,4.6,2010.8l-4.6,1868.4l-332.3,4.6l-333.9,3v-1692.3v-1692.3H4352.2H1817.6v1692.3V537.8h-329.3H1159V-1476.1z"/><path d="M2476.1,58.4c0-3.1-16.8-186.8-38.3-408.9s-35.2-405.8-33.7-408.9c7.7-6.1,3842.5-358.4,3847.1-353.8c7.7,9.2,75,807.1,68.9,813.2c-4.6,4.6-845.4,84.2-1868.4,177.7C3428.7-28.9,2564.9,50.8,2534.3,55.4C2502.1,60,2476.1,61.5,2476.1,58.4z"/><path d="M2368.9-1774.7v-415l1928.1,1.5c1059.8,1.5,1931.2,4.6,1932.7,7.7c3.1,3.1,4.6,188.4,1.5,412l-4.6,407.4H4298.6H2368.9V-1774.7z"/></g></g>
</svg>