<svg width="230" height="40" xmlns="http://www.w3.org/2000/svg">

 <g>
  <title>background</title>
  <rect fill="none" id="canvas_background" height="42" width="232" y="-1" x="-1"/>
 </g>
 <g>
  <title>Layer 1</title>
  <path opacity="0.85" id="svg_1" d="m3.126353,37.821528l3.162,0l0,-21.573q0,-4.284 3.264,-7.548t7.548,-3.264q4.182,0 7.548,3.264q3.213,3.213 3.213,7.548l0,21.573l3.264,0l0,-21.573q0,-4.386 3.264,-7.548q3.264,-3.264 7.497,-3.264q4.284,0 7.548,3.264t3.264,7.548l0,21.573l3.162,0l0,-21.573q0,-5.814 -4.08,-9.894t-9.894,-4.08q-3.825,0 -7.191,2.091q-3.417,2.142 -4.896,5.457q-1.989,-3.417 -5.355,-5.457q-3.519,-2.091 -7.344,-2.091q-5.763,0 -9.843,4.08q-4.131,4.131 -4.131,9.894l0,21.573zm74.24784,-35.802q-5.712,0 -9.588,4.131q-3.825,4.08 -3.825,9.945l0,21.828l3.213,0l0,-16.014l20.502,0l0,16.014l3.213,0l0,-21.828q0,-5.865 -3.825,-9.945q-3.978,-4.131 -9.69,-4.131zm10.302,16.728l-20.502,0l0,-2.652q0,-4.386 2.958,-7.599q3.009,-3.264 7.242,-3.264t7.344,3.264q2.958,3.213 2.958,7.599l0,2.652zm11.21184,19.278l24.939,0l0,-2.601l-21.777,0l0,-33.201l-3.162,0l0,35.802zm58.99884,-35.853l-3.213,0l0,21.777q0,4.692 -3.264,7.854q-3.213,3.06 -7.65,3.06q-4.845,0 -7.803,-3.06q-3.009,-3.111 -3.009,-7.854l0,-21.777l-3.264,0l0,21.777q0,5.814 3.978,9.894q4.029,4.182 10.098,4.182q5.661,0 9.945,-4.182q4.182,-4.08 4.182,-9.894l0,-21.777zm10.75284,25.959q0,-2.448 1.734,-4.437q1.734,-2.091 4.182,-2.091l0.663,0l9.537,0l0,-3.162l-9.537,0l-0.663,0q-2.601,-0.51 -4.2585,-2.244t-1.6575,-4.131q0,-3.009 1.7595,-4.7685t4.8195,-1.7595l17.34,0l0,-3.213l-17.34,0q-3.927,0 -6.834,2.907q-2.907,2.805 -2.907,6.834q0,2.55 0.969,4.641t2.856,3.009q-1.887,1.377 -2.856,3.621t-0.969,4.794q0,3.978 2.907,6.783q2.958,2.958 6.834,2.958l17.34,0l0,-3.366l-17.34,0q-3.06,0 -4.8195,-1.734t-1.7595,-4.641zm30.33684,9.792l3.162,0l0,-21.624q0,-4.284 3.264,-7.65q3.264,-3.264 7.548,-3.264t7.65,3.264q3.264,3.366 3.264,7.65l0,21.624l3.162,0l0,-21.624q0,-5.814 -4.131,-9.945t-9.945,-4.131q-5.712,0 -9.843,4.131t-4.131,9.945l0,21.624z" fill="#ff4400"/>
  <path id="svg_2" fill="#"/>
 </g>
</svg>